# xmcd
# 
# Track frame offsets:
#     150
#     50215
#     135450
#     198827
# 
# Disc length: 3262
# 
# Revision: 1
# Processed by: cddbd v1.5.2PL0 Copyright (c) Steve Scherf et al.
# Submitted via: BonkEnc v1.0.8
# 
DISCID=340cbc04
DTITLE=Pat Metheny Trio - The Concert 1992 [Tokyo, January 28, 1992]
DYEAR=1992
DGENRE=Contemporary Jazz
TTITLE0=Lonely Woman
TTITLE1=The Calling
TTITLE2=All The Things You Are
TTITLE3=Cantaloupe Island
EXTD=YEAR: 1992
EXTT0=
EXTT1=
EXTT2=
EXTT3=
PLAYORDER=
